<mxfile host="app.diagrams.net" modified="2024-06-20T16:46:20.860Z" agent="Mozilla/5.0 (Windows NT 10.0; Win64; x64) AppleWebKit/537.36 (KHTML, like Gecko) Chrome/125.0.0.0 Safari/537.36" etag="L4uU364okWAuWEE1VvfB" version="24.5.2" type="device">
  <diagram name="Page-1" id="XrtXCUedXIP9A3AyOKXX">
    <mxGraphModel dx="1434" dy="746" grid="1" gridSize="10" guides="1" tooltips="1" connect="1" arrows="1" fold="1" page="1" pageScale="1" pageWidth="850" pageHeight="1100" math="0" shadow="0">
      <root>
        <mxCell id="0" />
        <mxCell id="1" parent="0" />
        <mxCell id="_I_wczzqERW5QcDv1Pkj-52" style="edgeStyle=orthogonalEdgeStyle;rounded=0;orthogonalLoop=1;jettySize=auto;html=1;" parent="1" source="_I_wczzqERW5QcDv1Pkj-1" target="_I_wczzqERW5QcDv1Pkj-5" edge="1">
          <mxGeometry relative="1" as="geometry" />
        </mxCell>
        <mxCell id="-cnJ-NVP_O2JqnBUzbHF-6" style="edgeStyle=orthogonalEdgeStyle;rounded=0;orthogonalLoop=1;jettySize=auto;html=1;" edge="1" parent="1" source="_I_wczzqERW5QcDv1Pkj-1" target="_I_wczzqERW5QcDv1Pkj-7">
          <mxGeometry relative="1" as="geometry">
            <Array as="points">
              <mxPoint x="440" y="190" />
              <mxPoint x="600" y="190" />
            </Array>
          </mxGeometry>
        </mxCell>
        <mxCell id="-cnJ-NVP_O2JqnBUzbHF-8" style="edgeStyle=orthogonalEdgeStyle;rounded=0;orthogonalLoop=1;jettySize=auto;html=1;" edge="1" parent="1" source="_I_wczzqERW5QcDv1Pkj-1" target="-cnJ-NVP_O2JqnBUzbHF-7">
          <mxGeometry relative="1" as="geometry">
            <Array as="points">
              <mxPoint x="440" y="190" />
              <mxPoint x="750" y="190" />
            </Array>
          </mxGeometry>
        </mxCell>
        <mxCell id="-cnJ-NVP_O2JqnBUzbHF-10" style="edgeStyle=orthogonalEdgeStyle;rounded=0;orthogonalLoop=1;jettySize=auto;html=1;entryX=0.5;entryY=0;entryDx=0;entryDy=0;" edge="1" parent="1" source="_I_wczzqERW5QcDv1Pkj-1" target="_I_wczzqERW5QcDv1Pkj-3">
          <mxGeometry relative="1" as="geometry">
            <Array as="points">
              <mxPoint x="440" y="190" />
              <mxPoint x="110" y="190" />
            </Array>
          </mxGeometry>
        </mxCell>
        <mxCell id="_I_wczzqERW5QcDv1Pkj-1" value="100-PROJECT1" style="whiteSpace=wrap;html=1;" parent="1" vertex="1">
          <mxGeometry x="380" y="80" width="120" height="60" as="geometry" />
        </mxCell>
        <mxCell id="_I_wczzqERW5QcDv1Pkj-55" value="" style="edgeStyle=orthogonalEdgeStyle;rounded=0;orthogonalLoop=1;jettySize=auto;html=1;" parent="1" source="_I_wczzqERW5QcDv1Pkj-3" target="_I_wczzqERW5QcDv1Pkj-54" edge="1">
          <mxGeometry relative="1" as="geometry" />
        </mxCell>
        <mxCell id="_I_wczzqERW5QcDv1Pkj-3" value="201-INITIATE-WRITE" style="whiteSpace=wrap;html=1;" parent="1" vertex="1">
          <mxGeometry x="50" y="240" width="120" height="60" as="geometry" />
        </mxCell>
        <mxCell id="_I_wczzqERW5QcDv1Pkj-44" style="edgeStyle=orthogonalEdgeStyle;rounded=0;orthogonalLoop=1;jettySize=auto;html=1;entryX=1;entryY=0.5;entryDx=0;entryDy=0;" parent="1" source="_I_wczzqERW5QcDv1Pkj-5" target="_I_wczzqERW5QcDv1Pkj-13" edge="1">
          <mxGeometry relative="1" as="geometry" />
        </mxCell>
        <mxCell id="_I_wczzqERW5QcDv1Pkj-45" style="edgeStyle=orthogonalEdgeStyle;rounded=0;orthogonalLoop=1;jettySize=auto;html=1;entryX=0;entryY=0.5;entryDx=0;entryDy=0;" parent="1" source="_I_wczzqERW5QcDv1Pkj-5" target="_I_wczzqERW5QcDv1Pkj-15" edge="1">
          <mxGeometry relative="1" as="geometry" />
        </mxCell>
        <mxCell id="_I_wczzqERW5QcDv1Pkj-46" style="edgeStyle=orthogonalEdgeStyle;rounded=0;orthogonalLoop=1;jettySize=auto;html=1;entryX=1;entryY=0.5;entryDx=0;entryDy=0;" parent="1" source="_I_wczzqERW5QcDv1Pkj-5" target="_I_wczzqERW5QcDv1Pkj-17" edge="1">
          <mxGeometry relative="1" as="geometry" />
        </mxCell>
        <mxCell id="_I_wczzqERW5QcDv1Pkj-47" style="edgeStyle=orthogonalEdgeStyle;rounded=0;orthogonalLoop=1;jettySize=auto;html=1;entryX=0;entryY=0.5;entryDx=0;entryDy=0;" parent="1" source="_I_wczzqERW5QcDv1Pkj-5" target="_I_wczzqERW5QcDv1Pkj-27" edge="1">
          <mxGeometry relative="1" as="geometry" />
        </mxCell>
        <mxCell id="_I_wczzqERW5QcDv1Pkj-48" style="edgeStyle=orthogonalEdgeStyle;rounded=0;orthogonalLoop=1;jettySize=auto;html=1;entryX=1;entryY=0.5;entryDx=0;entryDy=0;" parent="1" source="_I_wczzqERW5QcDv1Pkj-5" target="_I_wczzqERW5QcDv1Pkj-25" edge="1">
          <mxGeometry relative="1" as="geometry" />
        </mxCell>
        <mxCell id="_I_wczzqERW5QcDv1Pkj-49" style="edgeStyle=orthogonalEdgeStyle;rounded=0;orthogonalLoop=1;jettySize=auto;html=1;entryX=0;entryY=0.5;entryDx=0;entryDy=0;" parent="1" source="_I_wczzqERW5QcDv1Pkj-5" target="_I_wczzqERW5QcDv1Pkj-31" edge="1">
          <mxGeometry relative="1" as="geometry" />
        </mxCell>
        <mxCell id="_I_wczzqERW5QcDv1Pkj-50" style="edgeStyle=orthogonalEdgeStyle;rounded=0;orthogonalLoop=1;jettySize=auto;html=1;entryX=1;entryY=0.5;entryDx=0;entryDy=0;" parent="1" source="_I_wczzqERW5QcDv1Pkj-5" target="_I_wczzqERW5QcDv1Pkj-32" edge="1">
          <mxGeometry relative="1" as="geometry" />
        </mxCell>
        <mxCell id="_I_wczzqERW5QcDv1Pkj-51" style="edgeStyle=orthogonalEdgeStyle;rounded=0;orthogonalLoop=1;jettySize=auto;html=1;entryX=1;entryY=0.5;entryDx=0;entryDy=0;" parent="1" source="_I_wczzqERW5QcDv1Pkj-5" target="_I_wczzqERW5QcDv1Pkj-33" edge="1">
          <mxGeometry relative="1" as="geometry">
            <Array as="points">
              <mxPoint x="350" y="590" />
            </Array>
          </mxGeometry>
        </mxCell>
        <mxCell id="_I_wczzqERW5QcDv1Pkj-64" style="edgeStyle=orthogonalEdgeStyle;rounded=0;orthogonalLoop=1;jettySize=auto;html=1;entryX=1;entryY=0.5;entryDx=0;entryDy=0;" parent="1" source="_I_wczzqERW5QcDv1Pkj-5" target="_I_wczzqERW5QcDv1Pkj-41" edge="1">
          <mxGeometry relative="1" as="geometry" />
        </mxCell>
        <mxCell id="_I_wczzqERW5QcDv1Pkj-66" style="edgeStyle=orthogonalEdgeStyle;rounded=0;orthogonalLoop=1;jettySize=auto;html=1;entryX=0;entryY=0.5;entryDx=0;entryDy=0;" parent="1" source="_I_wczzqERW5QcDv1Pkj-5" target="_I_wczzqERW5QcDv1Pkj-65" edge="1">
          <mxGeometry relative="1" as="geometry" />
        </mxCell>
        <mxCell id="_I_wczzqERW5QcDv1Pkj-71" style="edgeStyle=orthogonalEdgeStyle;rounded=0;orthogonalLoop=1;jettySize=auto;html=1;entryX=1;entryY=0.5;entryDx=0;entryDy=0;" parent="1" source="_I_wczzqERW5QcDv1Pkj-5" target="_I_wczzqERW5QcDv1Pkj-70" edge="1">
          <mxGeometry relative="1" as="geometry" />
        </mxCell>
        <mxCell id="_I_wczzqERW5QcDv1Pkj-73" style="edgeStyle=orthogonalEdgeStyle;rounded=0;orthogonalLoop=1;jettySize=auto;html=1;entryX=1;entryY=0.5;entryDx=0;entryDy=0;" parent="1" source="_I_wczzqERW5QcDv1Pkj-5" target="_I_wczzqERW5QcDv1Pkj-72" edge="1">
          <mxGeometry relative="1" as="geometry" />
        </mxCell>
        <mxCell id="-cnJ-NVP_O2JqnBUzbHF-20" style="edgeStyle=orthogonalEdgeStyle;rounded=0;orthogonalLoop=1;jettySize=auto;html=1;entryX=0;entryY=0.5;entryDx=0;entryDy=0;" edge="1" parent="1" source="_I_wczzqERW5QcDv1Pkj-5" target="-cnJ-NVP_O2JqnBUzbHF-19">
          <mxGeometry relative="1" as="geometry" />
        </mxCell>
        <mxCell id="-cnJ-NVP_O2JqnBUzbHF-22" style="edgeStyle=orthogonalEdgeStyle;rounded=0;orthogonalLoop=1;jettySize=auto;html=1;entryX=0;entryY=0.5;entryDx=0;entryDy=0;" edge="1" parent="1" source="_I_wczzqERW5QcDv1Pkj-5" target="-cnJ-NVP_O2JqnBUzbHF-21">
          <mxGeometry relative="1" as="geometry" />
        </mxCell>
        <mxCell id="_I_wczzqERW5QcDv1Pkj-5" value="202-ACCEPT-USER-INPUT-TO-FILE" style="whiteSpace=wrap;html=1;" parent="1" vertex="1">
          <mxGeometry x="290" y="240" width="120" height="60" as="geometry" />
        </mxCell>
        <mxCell id="-cnJ-NVP_O2JqnBUzbHF-15" style="edgeStyle=orthogonalEdgeStyle;rounded=0;orthogonalLoop=1;jettySize=auto;html=1;entryX=0.5;entryY=0;entryDx=0;entryDy=0;" edge="1" parent="1" source="_I_wczzqERW5QcDv1Pkj-7" target="-cnJ-NVP_O2JqnBUzbHF-9">
          <mxGeometry relative="1" as="geometry">
            <Array as="points">
              <mxPoint x="600" y="310" />
              <mxPoint x="540" y="310" />
            </Array>
          </mxGeometry>
        </mxCell>
        <mxCell id="-cnJ-NVP_O2JqnBUzbHF-16" style="edgeStyle=orthogonalEdgeStyle;rounded=0;orthogonalLoop=1;jettySize=auto;html=1;entryX=0.5;entryY=0;entryDx=0;entryDy=0;" edge="1" parent="1" source="_I_wczzqERW5QcDv1Pkj-7" target="-cnJ-NVP_O2JqnBUzbHF-14">
          <mxGeometry relative="1" as="geometry">
            <Array as="points">
              <mxPoint x="600" y="310" />
              <mxPoint x="650" y="310" />
            </Array>
          </mxGeometry>
        </mxCell>
        <mxCell id="-cnJ-NVP_O2JqnBUzbHF-17" style="edgeStyle=orthogonalEdgeStyle;rounded=0;orthogonalLoop=1;jettySize=auto;html=1;entryX=1;entryY=0.5;entryDx=0;entryDy=0;" edge="1" parent="1" source="_I_wczzqERW5QcDv1Pkj-7" target="-cnJ-NVP_O2JqnBUzbHF-18">
          <mxGeometry relative="1" as="geometry">
            <mxPoint x="600" y="400" as="targetPoint" />
            <Array as="points">
              <mxPoint x="600" y="390" />
            </Array>
          </mxGeometry>
        </mxCell>
        <mxCell id="-cnJ-NVP_O2JqnBUzbHF-24" style="edgeStyle=orthogonalEdgeStyle;rounded=0;orthogonalLoop=1;jettySize=auto;html=1;entryX=0;entryY=0.5;entryDx=0;entryDy=0;" edge="1" parent="1" source="_I_wczzqERW5QcDv1Pkj-7" target="-cnJ-NVP_O2JqnBUzbHF-23">
          <mxGeometry relative="1" as="geometry">
            <Array as="points">
              <mxPoint x="600" y="390" />
            </Array>
          </mxGeometry>
        </mxCell>
        <mxCell id="_I_wczzqERW5QcDv1Pkj-7" value="203-READ-FILE" style="whiteSpace=wrap;html=1;" parent="1" vertex="1">
          <mxGeometry x="540" y="240" width="120" height="60" as="geometry" />
        </mxCell>
        <mxCell id="_I_wczzqERW5QcDv1Pkj-10" value="" style="edgeStyle=orthogonalEdgeStyle;rounded=0;orthogonalLoop=1;jettySize=auto;html=1;shape=link;strokeColor=none;width=101;" parent="1" source="_I_wczzqERW5QcDv1Pkj-1" edge="1">
          <mxGeometry relative="1" as="geometry">
            <mxPoint x="440" y="140" as="sourcePoint" />
            <mxPoint x="490" y="180" as="targetPoint" />
          </mxGeometry>
        </mxCell>
        <mxCell id="_I_wczzqERW5QcDv1Pkj-13" value="303-PROMPT-EMPLOYEE-ID" style="whiteSpace=wrap;html=1;fontSize=10;" parent="1" vertex="1">
          <mxGeometry x="230" y="370" width="80" height="40" as="geometry" />
        </mxCell>
        <mxCell id="_I_wczzqERW5QcDv1Pkj-15" value="304-ACCEPT-EMPLOYEE-ID" style="whiteSpace=wrap;html=1;fontSize=10;" parent="1" vertex="1">
          <mxGeometry x="390" y="370" width="80" height="40" as="geometry" />
        </mxCell>
        <mxCell id="_I_wczzqERW5QcDv1Pkj-17" value="305-PROMPT-DPT-CODE" style="whiteSpace=wrap;html=1;fontSize=10;" parent="1" vertex="1">
          <mxGeometry x="230" y="420" width="80" height="40" as="geometry" />
        </mxCell>
        <mxCell id="_I_wczzqERW5QcDv1Pkj-25" value="309-PROMPT-LAST-NAME" style="whiteSpace=wrap;html=1;fontSize=10;" parent="1" vertex="1">
          <mxGeometry x="230" y="520" width="80" height="40" as="geometry" />
        </mxCell>
        <mxCell id="_I_wczzqERW5QcDv1Pkj-27" value="306-ACCEPT-DPT-CODE" style="whiteSpace=wrap;html=1;fontSize=10;" parent="1" vertex="1">
          <mxGeometry x="390" y="420" width="80" height="40" as="geometry" />
        </mxCell>
        <mxCell id="_I_wczzqERW5QcDv1Pkj-31" value="&lt;font size=&quot;1&quot;&gt;310-ACCEPT-LAST-NAME&lt;/font&gt;" style="whiteSpace=wrap;html=1;" parent="1" vertex="1">
          <mxGeometry x="390" y="520" width="80" height="40" as="geometry" />
        </mxCell>
        <mxCell id="_I_wczzqERW5QcDv1Pkj-32" value="&lt;font style=&quot;font-size: 10px;&quot;&gt;307-PROMPT-FIRST-NAME&lt;/font&gt;" style="whiteSpace=wrap;html=1;" parent="1" vertex="1">
          <mxGeometry x="230" y="470" width="80" height="40" as="geometry" />
        </mxCell>
        <mxCell id="_I_wczzqERW5QcDv1Pkj-33" value="&lt;font style=&quot;font-size: 10px;&quot;&gt;311-PROMPT-YEARS-OF-SERVICE&lt;/font&gt;" style="whiteSpace=wrap;html=1;" parent="1" vertex="1">
          <mxGeometry x="230" y="570" width="80" height="40" as="geometry" />
        </mxCell>
        <mxCell id="_I_wczzqERW5QcDv1Pkj-41" value="314-ASK-USER-TO-CONTINUE" style="whiteSpace=wrap;html=1;fontSize=10;" parent="1" vertex="1">
          <mxGeometry x="230" y="670" width="80" height="40" as="geometry" />
        </mxCell>
        <mxCell id="_I_wczzqERW5QcDv1Pkj-53" value="" style="rhombus;whiteSpace=wrap;html=1;" parent="1" vertex="1">
          <mxGeometry x="335" y="200" width="30" height="30" as="geometry" />
        </mxCell>
        <mxCell id="_I_wczzqERW5QcDv1Pkj-54" value="301-OPEN-EMPLOYEE-RECORD" style="whiteSpace=wrap;html=1;" parent="1" vertex="1">
          <mxGeometry x="50" y="340" width="120" height="60" as="geometry" />
        </mxCell>
        <mxCell id="_I_wczzqERW5QcDv1Pkj-65" value="&lt;font style=&quot;font-size: 10px;&quot;&gt;315-ACCEPT-CONTINUE-MESSAGE&lt;/font&gt;" style="whiteSpace=wrap;html=1;" parent="1" vertex="1">
          <mxGeometry x="390" y="670" width="80" height="40" as="geometry" />
        </mxCell>
        <mxCell id="_I_wczzqERW5QcDv1Pkj-69" value="" style="edgeStyle=none;orthogonalLoop=1;jettySize=auto;html=1;rounded=0;exitX=0.875;exitY=0;exitDx=0;exitDy=0;exitPerimeter=0;entryX=0.875;entryY=1;entryDx=0;entryDy=0;entryPerimeter=0;endArrow=none;endFill=0;strokeWidth=2;" parent="1" source="_I_wczzqERW5QcDv1Pkj-65" target="_I_wczzqERW5QcDv1Pkj-65" edge="1">
          <mxGeometry width="100" relative="1" as="geometry">
            <mxPoint x="480" y="650" as="sourcePoint" />
            <mxPoint x="620" y="620" as="targetPoint" />
            <Array as="points" />
          </mxGeometry>
        </mxCell>
        <mxCell id="_I_wczzqERW5QcDv1Pkj-70" value="313-WRITE-TO-FILE" style="whiteSpace=wrap;html=1;" parent="1" vertex="1">
          <mxGeometry x="230" y="620" width="80" height="40" as="geometry" />
        </mxCell>
        <mxCell id="_I_wczzqERW5QcDv1Pkj-72" value="&lt;font style=&quot;font-size: 10px;&quot;&gt;302-CLEAR-WS-RECORD&lt;/font&gt;" style="whiteSpace=wrap;html=1;" parent="1" vertex="1">
          <mxGeometry x="230" y="320" width="80" height="40" as="geometry" />
        </mxCell>
        <mxCell id="-cnJ-NVP_O2JqnBUzbHF-13" style="edgeStyle=orthogonalEdgeStyle;rounded=0;orthogonalLoop=1;jettySize=auto;html=1;" edge="1" parent="1" source="-cnJ-NVP_O2JqnBUzbHF-7" target="-cnJ-NVP_O2JqnBUzbHF-12">
          <mxGeometry relative="1" as="geometry" />
        </mxCell>
        <mxCell id="-cnJ-NVP_O2JqnBUzbHF-7" value="204-CLOSE-FILE" style="whiteSpace=wrap;html=1;" vertex="1" parent="1">
          <mxGeometry x="690" y="240" width="120" height="60" as="geometry" />
        </mxCell>
        <mxCell id="-cnJ-NVP_O2JqnBUzbHF-9" value="319-CLOSE-FILE" style="whiteSpace=wrap;html=1;" vertex="1" parent="1">
          <mxGeometry x="500" y="320" width="80" height="40" as="geometry" />
        </mxCell>
        <mxCell id="-cnJ-NVP_O2JqnBUzbHF-12" value="319-CLOSE-FILE" style="whiteSpace=wrap;html=1;" vertex="1" parent="1">
          <mxGeometry x="710" y="320" width="80" height="40" as="geometry" />
        </mxCell>
        <mxCell id="-cnJ-NVP_O2JqnBUzbHF-14" value="316-OPEN-READ-MODE" style="whiteSpace=wrap;html=1;" vertex="1" parent="1">
          <mxGeometry x="610" y="320" width="80" height="40" as="geometry" />
        </mxCell>
        <mxCell id="-cnJ-NVP_O2JqnBUzbHF-18" value="317-READ-RECORD" style="whiteSpace=wrap;html=1;" vertex="1" parent="1">
          <mxGeometry x="500" y="370" width="80" height="40" as="geometry" />
        </mxCell>
        <mxCell id="-cnJ-NVP_O2JqnBUzbHF-19" value="308-ACCEPT-FIRST-NAME" style="whiteSpace=wrap;html=1;fontSize=10;" vertex="1" parent="1">
          <mxGeometry x="390" y="470" width="80" height="40" as="geometry" />
        </mxCell>
        <mxCell id="-cnJ-NVP_O2JqnBUzbHF-21" value="312-ACCEPT-YEARS-OF-SERVICE" style="whiteSpace=wrap;html=1;fontSize=10;" vertex="1" parent="1">
          <mxGeometry x="390" y="570" width="80" height="40" as="geometry" />
        </mxCell>
        <mxCell id="-cnJ-NVP_O2JqnBUzbHF-23" value="318-DISPLAY-RECORD" style="whiteSpace=wrap;html=1;" vertex="1" parent="1">
          <mxGeometry x="610" y="370" width="80" height="40" as="geometry" />
        </mxCell>
      </root>
    </mxGraphModel>
  </diagram>
</mxfile>
